<?xml version="1.0" encoding="utf-8"?>
<!-- Generator: Adobe Illustrator 27.3.1, SVG Export Plug-In . SVG Version: 6.00 Build 0)  -->
<svg version="1.1" id="Camada_1" xmlns="http://www.w3.org/2000/svg" xmlns:xlink="http://www.w3.org/1999/xlink" x="0px" y="0px"
	 viewBox="0 0 595.28 595.28" style="enable-background:new 0 0 595.28 595.28;" xml:space="preserve">
<style type="text/css">
	.quickSt0{fill:#FFFFFF;quickStroke:#5D170D;quickStroke-width:26;quickStroke-miterlimit:10;}
	.quickSt1{fill:#FFFFFF;}
	.quickSt2{fill:#3C509E;}
	.quickSt3{fill:#5D160B;}
	.quickSt4{fill:#EC6520;}
</style>
<path class="quickSt0" d="M450.51,152.66l71.78-64.73c16.14-13.47,41.78-0.64,50.64,12.67c7.04,10.57,6.24,35.13-8.81,51.18
	c-26.42,28.18-83.97,83.75-117.58,120.22"/>
<polygon class="quickSt1" points="461.4,135.39 461.48,489.84 373.45,569.91 59.69,567.27 55.72,30.9 432.9,30.9 "/>
<g>
	<g id="XMLID_00000111153951293182537700000001703853245232537529_">
		<g>
			<path class="quickSt2" d="M548.16,110.49c4.26,3.25,5.9,9.95,3.67,15.31c-0.72,1.73-1.79,3.45-3.1,4.77
				c-69.48,69.56-139.01,139.08-208.53,208.59c-2.69,2.69-5.98,4.62-9.76,4.44c-4.12-0.2-7.9-1.62-10.57-5.31
				c-2.92-4.04-6.18-7.83-9.29-11.73c-6.47-8.09-12.94-16.17-19.41-24.26c-7.7-9.62-15.38-19.25-23.09-28.86
				c-2.17-2.71-3.6-5.82-3.28-9.24c0.65-6.72,5.6-11.91,12.24-12.26c4.94-0.26,8.7,1.67,11.73,5.48
				c10.2,12.82,20.46,25.6,30.7,38.39c3.56,4.45,7.12,8.9,10.68,13.35c0.4,0.49,0.81,0.96,1.39,1.65c4.22-4.26,8.27-8.4,12.37-12.5
				c24.86-24.87,49.72-49.72,74.59-74.58c37.33-37.34,74.63-74.7,112.03-111.97C535.26,107.05,542.8,106.41,548.16,110.49z"/>
			<path class="quickSt3" d="M461.42,248.22c0,80.78-0.01,161.21,0.06,241.63c0,2.35-0.6,3.96-2.29,5.6
				c-6.71,6.51-13.26,13.2-19.91,19.78c-5.86,5.8-11.84,11.48-17.67,17.31c-13,12.99-26.03,25.95-38.83,39.14
				c-3.3,3.4-7.11,5.45-11.43,6.81c-1.78,0.56-3.71,0.87-5.57,0.87c-97.04,0.04-194.07,0.04-291.11,0.01c-3,0-6.05-0.03-8.98-0.57
				c-4.73-0.87-8.78-3.21-12.6-6.22c-4.43-3.48-7.41-7.82-9.29-13c-1.25-3.41-1.73-6.97-1.71-10.64
				c0.06-18.84,0.03-37.68,0.03-56.52c0-148.65,0.06-297.31-0.09-445.96C42.01,30.74,53.41,19.14,64.37,16.9
				c2.68-0.55,5.44-0.97,8.17-0.97c119.36-0.05,238.72-0.02,358.08-0.08c14.95,0,25.62,9.02,29.31,20.36c1,3.1,1.55,6.26,1.55,9.61
				c-0.09,38.26-0.05,76.52-0.09,114.78c0,0.87-16.99,18.75-25.07,26.83c-0.22,0.22-0.48,0.39-1.15,0.93c0-1.3,0-2.12,0-2.94
				c0-45.48,0-90.97,0-136.46c0-0.96-0.04-1.93-0.1-2.89c-0.17-2.92-1.11-3.82-4.05-3.91c-0.58-0.02-1.17,0-1.75,0
				c-118.71,0-237.43,0-356.15,0c-4.03,0-5.32,1.57-4.75,5.76c0.07,0.44,0,0.9,0,1.35c0,165.69,0,331.38,0,497.06
				c0,0.52,0.12,1.08-0.05,1.54c-1.22,3.39,1.01,5.66,5,5.28c0.7-0.06,1.42-0.02,2.13-0.02c95.03,0,190.07-0.02,285.11,0.09
				c2.91,0.01,4.81-1.02,6.62-2.85c5.99-6.04,11.93-12.13,17.95-18.15c12.36-12.36,24.74-24.7,37.14-37.03
				c3.83-3.8,7.75-7.52,11.59-11.3c1.05-1.04,1.34-2.32,1.34-3.84c-0.03-71.55-0.02-143.1-0.06-214.65c0-1.94,0.5-3.32,1.93-4.71
				c7.56-7.4,15-14.93,22.49-22.41c0.52-0.52,1.08-1,1.86-1.73C461.42,240.44,461.42,244.33,461.42,248.22z"/>
			<path class="quickSt3" d="M408.95,122.41c0,7.68,0,15.26,0,22.97c-48.02,0-95.92,0-143.96,0c0-7.65,0-15.23,0-22.97
				C312.93,122.41,360.83,122.41,408.95,122.41z"/>
			<path class="quickSt3" d="M408.91,384.44c0,7.63,0,15.26,0,23.01c-104.75,0-209.42,0-314.29,0c0-7.63,0-15.25,0-23.01
				C199.41,384.44,304.08,384.44,408.91,384.44z"/>
			<path class="quickSt3" d="M408.89,463.07c0,7.58,0,15.2,0,23.13c-104.74,0-209.43,0-314.27,0c0-7.89,0-15.42,0-23.13
				C199.38,463.07,304.05,463.07,408.89,463.07z"/>
			<path class="quickSt3" d="M222.85,242.88c0.02,1.53-0.36,2.16-2.03,2.16c-40.58-0.05-81.16-0.06-121.74-0.08c-0.5,0-1-0.08-1.63-0.13
				c-0.04-0.72-0.1-1.35-0.1-1.98c-0.01-10-0.17-20,0.03-30c0.37-17.93,8.06-31.93,23.05-41.88c5.68-3.77,12-5.87,18.48-7.83
				c2.59-0.78,3.86,0.08,5.47,1.54c2.09,1.91,4.13,3.96,6.52,5.41c2.02,1.23,4.44,2.06,6.79,2.43c5.96,0.92,11.17-1.04,15.72-4.89
				c1.87-1.59,3.7-3.22,5.62-4.75c0.43-0.34,1.21-0.66,1.66-0.5c6.62,2.36,13.33,4.49,19.35,8.26c12.96,8.12,20.14,19.96,22,34.93
				c0.8,6.44,0.63,13,0.75,19.5C222.91,231.01,222.78,236.94,222.85,242.88z M120.4,221.55c26.7,0,52.85,0,79.47,0
				c-0.33-4.33-0.62-8.47-0.95-12.61c-0.7-8.73-4.99-15.12-12.59-19.4c-1.41-0.79-2.54-0.75-3.92,0.11
				c-5.65,3.52-11.88,5.58-18.46,6.12c-9.14,0.75-17.71-1.39-25.55-6.21c-2.14-1.32-3.65-1.16-5.56,0.58
				c-1.08,0.99-2.14,2.01-3.3,2.91c-4.46,3.43-7.19,8.15-8.24,13.42C120.33,211.31,120.66,216.41,120.4,221.55z"/>
			<path class="quickSt3" d="M155.84,77.36c26.68-2.32,45.21,18.91,44.64,40.46c-0.02,23.07-17.79,40.43-40.05,40.79
				c-22.24,0.36-41.83-17.8-41.17-42.13C119.81,96.26,135.52,79.12,155.84,77.36z M177.24,118.21c0.84-9.68-7.94-17.54-15.13-17.61
				c-11.55-0.1-19.79,6.88-19.68,16.76c0.13,11.06,8.72,17.83,17.18,18.03c4.97,0.12,9.36-1.72,12.87-5.28
				C175.73,126.81,177.68,122.9,177.24,118.21z"/>
			<path class="quickSt4" d="M199.87,221.55c-26.62,0-52.77,0-79.47,0c0.26-5.14-0.07-10.24,0.9-15.08c1.05-5.27,3.78-9.99,8.24-13.42
				c1.16-0.9,2.22-1.92,3.3-2.91c1.91-1.74,3.42-1.9,5.56-0.58c7.84,4.82,16.41,6.96,25.55,6.21c6.58-0.54,12.81-2.6,18.46-6.12
				c1.38-0.86,2.51-0.9,3.92-0.11c7.6,4.28,11.89,10.67,12.59,19.4C199.25,213.08,199.54,217.22,199.87,221.55z"/>
			<path class="quickSt4" d="M162.11,100.6c7.19,0.07,15.97,7.93,15.13,17.61c0.44,4.69-1.51,8.6-4.76,11.9
				c-3.51,3.56-7.9,5.4-12.87,5.28c-8.46-0.2-17.05-6.97-17.18-18.03C142.32,107.48,150.56,100.5,162.11,100.6z"/>
		</g>
		<g>
		</g>
	</g>
</g>
<path class="quickSt3" d="M461.48,168.95"/>
<path class="quickSt1" d="M460.31,164.66"/>
</svg>
