<?xml version="1.0" encoding="utf-8"?>
<!-- Generator: Adobe Illustrator 27.3.1, SVG Export Plug-In . SVG Version: 6.00 Build 0)  -->
<svg version="1.1" id="Camada_1" xmlns="http://www.w3.org/2000/svg" xmlns:xlink="http://www.w3.org/1999/xlink" x="0px" y="0px"
	 viewBox="0 0 595.28 595.28" style="enable-background:new 0 0 595.28 595.28;" xml:space="preserve">
<style type="text/css">
	.saiposSt0{fill:none;}
	.saiposSt1{fill:#5D1408;}
	.saiposSt2{fill:#F96513;}
	.saiposSt3{fill:#FFFFFF;}
	.saiposSt4{fill:#704542;}
	.saiposSt5{fill:#947875;}
	.saiposSt6{fill:#B7A6A4;}
	.saiposSt7{fill:#FFA485;}
</style>
<g>
	<path class="saiposSt1" d="M542.91,376.14c6.03,16.3,6.22,32.97,3.13,49.29c-1.76,9.33-6.75,18.13-10.77,27.02
		c-7.59,16.82-18.52,30.82-31.81,42.93c-19.92,18.16-42.97,31.1-68.4,40.57c-11.49,4.28-23.78,5.64-34.95,11.29
		c-4.46,2.26-11.17,1.59-16.82,2.64c-10.96,2.04-21.9,4.49-32.97,5.48c-7.78,0.7-15.25,3.08-23.23,2.86
		c-17.04-0.48-34.1-0.31-51.15-0.1c-17.67,0.22-35.19-1.93-52.64-3.86c-16.7-1.85-33.65-3.89-48.99-11.91
		c-2.91-1.52-6.26-0.38-9.48-1.5c-26.59-9.25-50.76-22.52-71.88-41.31c-13.67-12.16-24.82-26.31-32.65-42.67
		c-5.23-10.93-9.85-22.36-11.91-34.86c-1.6,0-3.12-0.08-4.64,0.02c-3.01,0.18-6.17,0.16-7.37-3.12c-1.17-3.21-0.3-6.36,2.09-9.02
		c2.44-2.72,4.8-5.52,7.09-8.37c1.29-1.61,2.38-3.38,3.52-5.02c-1.85-3.1-5.19-2.68-7.55-4.15c-5.35-3.33-5.85-8.32-0.67-11.73
		c1.83-1.2,4.03-1.86,6.11-2.66c9.63-3.7,18.37-8.28,23.87-17.84c4.05-7.04,10.86-11.94,16.68-17.88
		c-10.23-15.28-16.65-32.04-18.68-49.94c-1.77-15.58-0.49-31.31,3.62-46.66c8.56-31.93,27.89-55.06,57.06-70.15
		c5.17-2.68,8.09-4.76,6.9-12.33c-3.17-20.27-1.43-40.61,3.38-60.67c3.31-13.8,7.63-27.17,15.13-39.25
		c6.2-9.99,14.26-17.17,26.2-21.17c13.36-4.48,24.76-3.52,34.85,5.66c8.44,7.68,11.92,18.24,14.35,29.31
		c2.28,10.37-0.85,20.56-0.07,30.94c10.7-0.71,12.2-9.15,15.08-16.61c7.4-19.15,14.03-28.18,36.85-26
		c6.14,0.59,11.52,4.31,15.43,9.45c3.81,5.01,7.14,10.18,8.55,16.56c0.96,4.36,3.61,6.82,9.06,6.4
		c11.02-0.85,20.08,3.54,26.22,12.91c2.67,4.08,6.22,4.86,10.01,3.02c4.09-1.99,9.03-3.69,8.96-9.8
		c-0.09-7.56-0.66-15.18,0.09-22.66c1.47-14.77,5.76-28.16,19.06-37.32c8.53-5.87,28.92-5.77,39.29,1.84
		c17.28,12.68,24.2,30.83,29.84,50.03c1.42,4.85,3.38,10.01,2.98,14.85c-0.88,10.59,3.44,20.66,1.87,31.29
		c-1.24,8.38,1.77,16.79,1.05,25.29c-0.32,3.76,2.88,4.87,5.43,5.76c14.57,5.07,26.86,13.72,37.65,24.42
		c14.37,14.26,22.71,31.72,26.83,51.57c2.35,11.32,3.24,22.57,3.39,34.05c0.22,17.12-4.4,32.83-12.65,47.62
		c-4.03,7.24-3.32,9.87,1.79,16.27c5.72,7.16,13.07,10.15,21.74,11.23c4.16,0.51,6.56-0.99,7.32-5.05c0.44-2.38,0.92-4.43,4.1-4.43
		c2.72,0,4.41,0.65,6,3.27c6.32,10.33,0.81,18.02-7.56,21.16C546.72,373.81,544.71,374.27,542.91,376.14z M187.31,189.39
		c-1.01-1.51-2.36-1.14-3.73-0.66c-3.79,0.01-7.59,0.01-11.38,0.02c-2.08-0.45-4.16-0.86-6.02,0.68c-1.44,0.41-2.85,1.01-4.31,1.22
		c-20.25,2.92-36.24,13.61-48.88,28.87c-15.69,18.94-22.32,41.01-20.15,65.89c1.15,13.25,4.25,25.68,10.87,37.04
		c9.63,16.52,23.07,28.97,40.69,37.02c9.09,4.15,18.4,5.88,28.21,7.34c14.37,2.13,26.89-2.04,39.37-7.64
		c2.29-1.03,3.4-2.84,0.05-5.02c-2.83-1.84-5.21-4.64-7.24-7.42c-10.96-15.05-12.05-47.98,1.78-62.84
		c8.26-8.88,15.04-12.36,26.59-8.57c-7.25,5-9.69,12.03-6.45,18.42c1.71,3.37,4.29,5.81,7.72,7.27c6.8,2.9,12.06-1.09,17.52-4.52
		c1.52,5.14,2.91,9.86,4.34,14.69c7.98-14.84,9.62-37,5.01-54.93c-4.18-16.25-11.24-31.26-23.3-42.71
		c-13.13-12.46-28.5-21.91-47.54-22.98C189.39,190.48,188.36,189.79,187.31,189.39z M422.12,188.19c-1.99-1.51-3.98-1.5-5.97,0
		c-68.11,3.29-98.37,76.58-76.71,121.1c3.5-8.69,4.5-17.79,11.08-25.19c8.24-9.26,14.03-12.3,25.73-8.85
		c-6.94,7.6-8.53,15.43-4.18,20.61c7.02,8.38,10.07,8.48,23.98,0.54c5.52,22.97,4.11,44.01-15.29,60.6
		c53.33,29.97,119.13-12.11,122.89-69.77c4.57-5.44,1.32-11.68,1.73-17.55c0.02-0.35-1.12-0.78-1.72-1.17
		C499.63,223.36,465.9,192.28,422.12,188.19z M287.5,276.7c-0.01,25.49-5.72,43.83-14.76,59.33c-19.3,33.12-49.18,51.09-87.27,54.72
		c-27.81,2.66-52.52-5.57-74.19-23.17c-10.18-8.27-10.51-8.46-19.99,0.24c-13.46,12.35-20.99,28.01-21.14,46.22
		c-0.11,13.39,4.42,26.19,11.44,37.56c10.64,17.22,24.41,32,41.31,43.05c28.08,18.36,59.11,29.65,92.21,35.48
		c16.52,2.91,33.09,5.42,49.63,8.15c16.8,2.77,33.62,4.85,50.63,2.25c5.65-0.87,11.19-2.89,16.85-3.26c7.57-0.49,15-2,21.98-4.3
		c14.89-4.9,30.31-7.66,45.41-11.52c13.74-3.52,27.01-7.94,39.76-13.61c18.77-8.36,37.19-17.2,52.02-32.64
		c11.96-12.45,22.38-25.51,29.3-41.21c4.41-9.99,4.55-20.8,3.46-31.38c-1.68-16.22-11.73-28.15-22.24-39.58
		c-4.89-5.32-6.56-5.14-11.91-0.21c-12.98,11.95-28,20.54-45.13,24.45c-13.44,3.07-27.18,4.42-41.14,2.4
		c-15.36-2.22-30-6.04-43.17-14.59c-16.18-10.51-29.03-23.9-37.96-41.18c-8.37-16.19-12.44-33.35-13.23-51.37
		c-0.29-6.71-0.77-13.48,0.9-20.19c1.01-4.06-0.42-6.72-5.41-6.37c-4.63,0.33-9.3,0.01-13.94,0.25c-3.44,0.18-5.74,2.08-4.58,5.71
		C288.04,267.26,287.15,272.67,287.5,276.7z M366.27,133.09c-4.86-2.02-8.82,2.28-13.47,1.79c-5.07-0.53-7.18,2.93-7.37,7
		c-0.35,7.58-5.58,12.4-9.52,17.79c-2.85,3.9-7.74,4.52-11.97,1.63c-4.36-2.97-5.35-7.24-3.22-12.2c1.14-2.66,2.28-5.36,3.03-8.15
		c1.95-7.32,3.47-14.79,0.19-22.06c-2.79-6.2-7.65-6.98-12.42-2.19c-3.92,3.94-8.15,7.6-10.05,13.23c-1.39,4.09-5.25,4.23-8.79,3.68
		c-3.58-0.56-5.14-3.38-5.4-6.65c-0.91-11.2-1.1-22.48-2.57-33.59c-1.22-9.27-1.59-9.71-8.2-9.59c-3.97,0.07-5.6,2.47-6.83,5.82
		c-2.65,7.21-4.92,14.67-8.5,21.41c-6.16,11.61-17.1,16.93-29.52,19.02c-5.11,0.86-6.49,3.26-6.14,7.81c0.21,2.72,0.03,5.43-1,8
		c-1.98,4.92-5.55,7.35-10.89,6.41c-5.05-0.89-7.91-4.11-7.81-9.22c0.15-7.55,0.05-15.21,1.29-22.61
		c1.85-11.01,1.45-21.9-0.42-32.68c-1.12-6.47-2.03-13.32-6.62-18.75c-3.28-3.88-7.2-4.09-10.7-1.12
		c-15.31,13.01-23.21,30.16-25.2,49.74c-1.16,11.38,0.04,22.96,0.97,34.42c0.94,11.57,2.2,13,14.01,12.89
		c6.97-0.06,14.05,0.11,20.67,1.61c19.97,4.52,38.2,12.93,52.97,27.66c9.94,9.91,18.61,20.74,23.57,34.05
		c1.9,5.08,4.93,7.47,10.49,6.64c7.64-1.13,15.35-2.1,23.06-1.48c5.56,0.45,8.55-1.94,10.8-6.69c3.72-7.82,7.81-15.44,13.08-22.38
		c11.66-15.37,25.47-27.93,43.94-34.68c12.64-4.62,25.86-5.27,39.07-5.73c4.17-0.15,6.2-1.08,6.9-5.49
		c0.81-5.07,2.01-10.06,2.68-15.2c1.49-11.44-0.36-37.31-4.17-47.9c-0.25-0.71,0-1.6-0.27-2.29c-3.58-9.37-7.47-18.56-15.16-25.47
		c-4.51-4.05-12.42-3.43-16.16,1.05c-8.65,10.37-9.78,23.15-8.76,35.34c1.15,13.86,1.75,27.66,1.92,41.53
		c0.03,2.46-0.91,4.22-2.89,5.25c-7.1,3.7-14.61-1.14-14.62-9.33C366.26,138.64,366.27,135.85,366.27,133.09z M358.99,330.2
		c6.21-0.09,8.6-4.55,6.21-9.76c-1.69-3.7-4.71-6.7-4.98-11.2c-0.17-2.84-3.05-2.23-5.11-2.29c-2.2-0.06-3.61,0.64-4.01,3.1
		c-0.72,4.44-0.79,8.91,0.14,13.25C352.19,327.68,355.58,329.68,358.99,330.2z M211.92,306.95c-2.14-0.01-4.56-0.22-4.87,2.7
		c-0.62,5.7-1.25,11.57,1.61,16.8c2.1,3.84,7.33,4.86,10.35,2.65c4.16-3.03,3.95-6.23,0.95-10.2c-1.98-2.61-4.15-5.36-3.91-9.21
		C216.21,307.18,214.02,306.81,211.92,306.95z"/>
	<path class="saiposSt2" d="M287.5,276.7c-0.35-4.03,0.54-9.44-1.18-14.77c-1.16-3.62,1.14-5.53,4.58-5.71c4.64-0.24,9.31,0.07,13.94-0.25
		c4.99-0.35,6.41,2.31,5.41,6.37c-1.67,6.72-1.19,13.48-0.9,20.19c0.78,18.02,4.86,35.18,13.23,51.37
		c8.93,17.29,21.79,30.68,37.96,41.18c13.17,8.56,27.82,12.38,43.17,14.59c13.96,2.01,27.7,0.66,41.14-2.4
		c17.14-3.91,32.16-12.5,45.13-24.45c5.36-4.93,7.02-5.11,11.91,0.21c10.5,11.43,20.56,23.36,22.24,39.58
		c1.09,10.58,0.95,21.39-3.46,31.38c-6.93,15.7-17.34,28.76-29.3,41.21c-14.83,15.44-33.24,24.28-52.02,32.64
		c-12.75,5.68-26.03,10.09-39.76,13.61c-15.1,3.87-30.52,6.62-45.41,11.52c-6.98,2.3-14.41,3.81-21.98,4.3
		c-5.66,0.37-11.2,2.39-16.85,3.26c-17.01,2.6-33.83,0.53-50.63-2.25c-16.54-2.73-33.11-5.24-49.63-8.15
		c-33.1-5.84-64.12-17.12-92.21-35.48c-16.9-11.05-30.66-25.83-41.31-43.05c-7.03-11.37-11.56-24.17-11.44-37.56
		c0.15-18.21,7.68-33.87,21.14-46.22c9.49-8.71,9.82-8.51,19.99-0.24c21.67,17.6,46.38,25.82,74.19,23.17
		c38.09-3.64,67.97-21.61,87.27-54.72C281.78,320.53,287.49,302.19,287.5,276.7z M305.85,356.82c-0.68-1.12-1.56-1.18-2.57-0.46
		c-3.76,0.01-7.53,0.01-11.29,0.02c-1.71-0.83-3.37-0.99-4.89,0.42c-0.67,0.37-1.31,0.99-2,1.07c-15.26,1.58-28.68,7.61-41.08,16.43
		c-13.27,9.43-21.78,22.28-27.6,37.18c-4.45,2.3-9.93,1.4-14.08,4.81c-3.95,3.25-6.23,6.87-5.94,12.27c0.21,3.86,1.71,6.7,5.18,7.3
		c5.89,1.02,7.84,5.05,9.32,9.9c2.39,7.84,8.97,13.5,11.23,21.42c-1.53,0.82-1.16,2.3-1.18,3.6c-0.29,17.16,7.95,31.08,20.32,41.03
		c14.96,12.03,33.3,17.62,52.89,18.43c10.31,0.42,20.25-1.4,30.01-3.82c8-1.98,16.84-4.03,23.1-8.89
		c16.82-13.06,24.76-31.18,24.64-52.63c0.11-1.98,1.49-3.23,2.9-4.12c7.2-4.56,10.06-11.82,12.34-19.43
		c1.52-5.07,2.4-10.3,2.86-15.73c1.97,0,3.5,0.01,5.03,0c5.74-0.05,10.59-6.03,7.97-11c-3.16-5.98-7.76-11.25-14.6-13.58
		c-5.65-1.93-11.54-2.51-17.5-2.46c0.06-1.38-0.36-2.59-0.99-3.85c-3.36-6.75-9.24-11.08-14.78-15.74
		C340.81,366.92,324.25,359.81,305.85,356.82z"/>
	<path class="saiposSt3" d="M503.63,287.23c-3.75,57.66-69.56,99.74-122.89,69.77c19.41-16.6,20.82-37.63,15.29-60.6
		c-13.91,7.94-16.96,7.85-23.98-0.54c-4.34-5.19-2.75-13.02,4.18-20.61c-11.69-3.46-17.49-0.42-25.73,8.85
		c-6.58,7.4-7.58,16.5-11.08,25.19c-21.65-44.52,8.6-117.81,76.71-121.1c1.99,0,3.98,0,5.97,0c43.78,4.1,77.5,35.17,81.52,80.32
		C504.92,274.75,504.96,280.99,503.63,287.23z"/>
	<path class="saiposSt3" d="M172.2,188.75c3.79-0.01,7.59-0.01,11.38-0.02c1.08,1.16,2.44,0.71,3.73,0.66c1.05,0.4,2.08,1.09,3.14,1.15
		c19.04,1.06,34.41,10.52,47.54,22.98c12.07,11.45,19.12,26.46,23.3,42.71c4.61,17.93,2.97,40.09-5.01,54.93
		c-1.43-4.83-2.82-9.55-4.34-14.69c-5.46,3.44-10.72,7.43-17.52,4.52c-3.43-1.47-6.01-3.9-7.72-7.27
		c-3.24-6.39-0.81-13.42,6.45-18.42c-11.55-3.78-18.33-0.31-26.59,8.57c-13.82,14.86-12.73,47.79-1.78,62.84
		c2.02,2.78,4.4,5.58,7.24,7.42c3.35,2.18,2.24,3.99-0.05,5.02c-12.48,5.6-25,9.77-39.37,7.64c-9.81-1.45-19.11-3.18-28.21-7.34
		c-17.62-8.04-31.06-20.5-40.69-37.02c-6.62-11.36-9.72-23.78-10.87-37.04c-2.16-24.88,4.46-46.95,20.15-65.89
		c12.64-15.25,28.62-25.94,48.88-28.87c1.47-0.21,2.88-0.8,4.31-1.22C168.24,189.73,170.31,190.08,172.2,188.75z"/>
	<path class="saiposSt2" d="M366.27,133.09c0,2.76,0,5.55,0,8.34c0.01,8.19,7.52,13.03,14.62,9.33c1.97-1.03,2.91-2.78,2.89-5.25
		c-0.17-13.87-0.77-27.67-1.92-41.53c-1.01-12.19,0.11-24.97,8.76-35.34c3.74-4.48,11.65-5.1,16.16-1.05
		c7.7,6.92,11.59,16.11,15.16,25.47c0.27,0.7,0.02,1.59,0.27,2.29c3.81,10.59,5.66,36.45,4.17,47.9c-0.67,5.14-1.87,10.13-2.68,15.2
		c-0.7,4.4-2.73,5.34-6.9,5.49c-13.21,0.46-26.43,1.12-39.07,5.73c-18.46,6.75-32.28,19.31-43.94,34.68
		c-5.27,6.95-9.37,14.57-13.08,22.38c-2.26,4.75-5.24,7.13-10.8,6.69c-7.71-0.62-15.42,0.35-23.06,1.48
		c-5.56,0.82-8.6-1.56-10.49-6.64c-4.97-13.32-13.64-24.14-23.57-34.05c-14.77-14.73-32.99-23.14-52.97-27.66
		c-6.62-1.5-13.7-1.67-20.67-1.61c-11.8,0.1-13.07-1.33-14.01-12.89c-0.93-11.46-2.13-23.04-0.97-34.42
		c2-19.58,9.89-36.73,25.2-49.74c3.51-2.98,7.42-2.76,10.7,1.12c4.59,5.42,5.5,12.28,6.62,18.75c1.87,10.78,2.27,21.67,0.42,32.68
		c-1.25,7.4-1.14,15.06-1.29,22.61c-0.1,5.11,2.76,8.33,7.81,9.22c5.34,0.94,8.91-1.49,10.89-6.41c1.04-2.57,1.22-5.29,1-8
		c-0.35-4.55,1.02-6.94,6.14-7.81c12.41-2.09,23.36-7.41,29.52-19.02c3.58-6.74,5.84-14.2,8.5-21.41c1.23-3.35,2.86-5.75,6.83-5.82
		c6.61-0.12,6.98,0.32,8.2,9.59c1.47,11.12,1.66,22.4,2.57,33.59c0.27,3.27,1.83,6.09,5.4,6.65c3.55,0.55,7.41,0.41,8.79-3.68
		c1.9-5.63,6.14-9.29,10.05-13.23c4.77-4.8,9.63-4.01,12.42,2.19c3.27,7.27,1.76,14.75-0.19,22.06c-0.74,2.79-1.88,5.49-3.03,8.15
		c-2.13,4.96-1.13,9.23,3.22,12.2c4.23,2.88,9.12,2.27,11.97-1.63c3.93-5.39,9.17-10.2,9.52-17.79c0.19-4.07,2.3-7.53,7.37-7
		C357.44,135.36,361.4,131.06,366.27,133.09z M282.17,180.22c6.19-0.41,11.26-3.34,15.85-7.27c7.24-6.2,12.38-13.71,13.47-23.38
		c0.36-3.16,0.17-6.68-3.42-8.32c-3.51-1.6-6.53-0.35-8.57,2.66c-6.14,9.06-13.86,16.36-23.09,22.26c-2.54,1.62-5.79,4.01-3.82,8.03
		C274.47,178.05,277.36,180.73,282.17,180.22z M325.64,172.98c0.05-5.85-1.72-7.74-7.38-7.86c-5.14-0.11-10.16,3.99-10.12,8.27
		c0.04,3.85,6.25,10.29,9.87,10.23C322.3,183.55,325.59,178.96,325.64,172.98z M279.21,136.06c-5.07-0.03-8.29,2.86-8.31,7.44
		c-0.02,3.49,4.29,8.6,7.25,8.59c3.81,0,8.95-4.81,8.84-8.25C286.8,138.53,284.36,136.08,279.21,136.06z"/>
	<path class="saiposSt3" d="M358.99,330.2c-3.41-0.52-6.79-2.52-7.74-6.9c-0.94-4.34-0.86-8.81-0.14-13.25c0.4-2.46,1.81-3.16,4.01-3.1
		c2.06,0.06,4.94-0.55,5.11,2.29c0.26,4.5,3.28,7.5,4.98,11.2C367.58,325.65,365.2,330.11,358.99,330.2z"/>
	<path class="saiposSt3" d="M211.91,306.96c2.11-0.15,4.29,0.22,4.14,2.74c-0.24,3.85,1.93,6.59,3.91,9.21c3,3.97,3.21,7.17-0.95,10.2
		c-3.03,2.2-8.25,1.19-10.35-2.65c-2.86-5.23-2.23-11.1-1.61-16.8C207.37,306.73,209.79,306.94,211.91,306.96z"/>
	<path class="saiposSt4" d="M503.63,287.23c1.33-6.24,1.29-12.48,0.02-18.72c0.6,0.39,1.74,0.82,1.72,1.17
		C504.94,275.54,508.19,281.79,503.63,287.23z"/>
	<path class="saiposSt5" d="M422.12,188.19c-1.99,0-3.98,0-5.97,0C418.14,186.69,420.13,186.68,422.12,188.19z"/>
	<path class="saiposSt6" d="M172.2,188.75c-1.88,1.32-3.96,0.98-6.02,0.68C168.04,187.9,170.12,188.31,172.2,188.75z"/>
	<path class="saiposSt6" d="M187.31,189.39c-1.29,0.05-2.65,0.5-3.73-0.66C184.95,188.25,186.3,187.88,187.31,189.39z"/>
	<path class="saiposSt1" d="M370.9,398.56c5.95-0.05,11.85,0.53,17.5,2.46c6.84,2.33,11.45,7.6,14.6,13.58c2.62,4.96-2.24,10.95-7.97,11
		c-1.53,0.01-3.06,0-5.03,0c-0.46,5.42-1.33,10.65-2.86,15.73c-2.28,7.61-5.14,14.88-12.34,19.43c-1.41,0.89-2.79,2.15-2.9,4.12
		c-10.27,4.26-20.56,8.68-31.97,8.27c-4.7-0.17-6.24,1.11-6.43,6.11c-0.32,8.28-4.85,16.39-14.48,17.33
		c-13.35,1.31-26.73,2.91-40.08,2.01c-14.2-0.96-15.6-1.46-18.16-15.23c-0.99-5.31-2.98-5.7-7.03-5.53
		c-11.88,0.49-22.38-3.23-31.62-10.66c-2.25-7.92-8.83-13.58-11.23-21.42c-1.48-4.85-3.43-8.88-9.32-9.9
		c-3.46-0.6-4.97-3.44-5.18-7.3c-0.29-5.41,1.98-9.03,5.94-12.27c4.16-3.42,9.64-2.52,14.08-4.81c1.04,0.41,2.06,0.9,3.13,1.21
		c4.31,1.23,8.97,1.57,12.79,4.05c2.89,1.87,4.15,4.93,3.66,8.47c-0.46,3.4-3.25,2.42-5.38,2.94c-3.13,0.76-5.64,2.11-4.98,6.28
		c1.92,12.03,11.83,23.09,23.9,24.56c16.8,2.04,29.64-4.54,36.02-21.23c0.88-2.31,0.22-3.71-1.93-5.23
		c-9.81-6.92-17.73-15.66-24.26-25.75c-9.45-14.59-5.22-26.96,11.2-32.42c10.87-3.61,22.08-2.03,33.16-2.26
		c6.72-0.14,13.12,1.7,19.11,4.6c9.73,4.7,11.92,8.82,9.65,18.23c-3.51,14.55-11.95,26-23.33,35.37c-2,1.64-2.93,3.28-1.78,5.33
		c1.57,2.8,3.13,6.13,5.65,7.77c9.54,6.21,18.97,12.04,31.67,10.22c10.62-1.52,19.03-5.39,24.36-14.45
		c3.87-6.59,5.29-13.98,2.76-22.22c-2.01,1.07-3.25,1.98-4.63,2.42c-2.89,0.93-5.94,0.63-8.3-1.11c-1.82-1.35-3-4.17-1.84-6.18
		C360.37,406.36,363.08,399.76,370.9,398.56z M282.85,489.35c2.1,0,3.46,0.01,4.81,0c7-0.08,7.6-0.68,7.63-7.6
		c0.01-2.71-0.07-5.41,0.02-8.12c0.09-2.64,0.82-4.76,4.03-5.22c3.66-0.53,5.53,1.46,6.26,4.47c0.53,2.2,0.2,4.61,0.2,6.92
		c0.01,8.5,2.5,10.44,10.86,8.24c4.7-1.23,7.1-4.71,7.58-9.25c0.46-4.29,0.87-8.31-4.96-10.53c-6.26-2.39-13-4.67-17.59-10.13
		c-2.91-3.47-4.94-2.43-7.24,0.62c-5.08,6.73-11.05,12.21-19.43,14.82c-6.52,2.03-7.36,8.12-2.73,13.26
		C275.67,490.58,279.78,488.83,282.85,489.35z"/>
	<path class="saiposSt3" d="M370.9,398.56c-7.82,1.2-10.52,7.8-13.83,13.52c-1.16,2,0.02,4.83,1.84,6.18c2.36,1.74,5.41,2.04,8.3,1.11
		c1.38-0.45,2.62-1.35,4.63-2.42c2.52,8.24,1.11,15.64-2.76,22.22c-5.33,9.07-13.74,12.93-24.36,14.45
		c-12.71,1.82-22.13-4-31.67-10.22c-2.52-1.64-4.08-4.97-5.65-7.77c-1.15-2.06-0.22-3.69,1.78-5.33
		c11.38-9.37,19.81-20.82,23.33-35.37c2.27-9.41,0.07-13.53-9.65-18.23c-5.99-2.9-12.4-4.74-19.11-4.6
		c-11.08,0.23-22.29-1.35-33.16,2.26c-16.42,5.45-20.66,17.83-11.2,32.42c6.53,10.08,14.45,18.83,24.26,25.75
		c2.15,1.51,2.81,2.92,1.93,5.23c-6.38,16.69-19.22,23.27-36.02,21.23c-12.07-1.47-21.98-12.53-23.9-24.56
		c-0.66-4.17,1.84-5.52,4.98-6.28c2.13-0.52,4.92,0.46,5.38-2.94c0.48-3.54-0.78-6.61-3.66-8.47c-3.82-2.47-8.48-2.81-12.79-4.05
		c-1.07-0.31-2.09-0.8-3.13-1.21c5.83-14.9,14.34-27.74,27.6-37.18c12.4-8.82,25.82-14.85,41.08-16.43c0.7-0.07,1.34-0.7,2-1.07
		c1.68,0.43,3.31,0.35,4.89-0.42c3.76-0.01,7.53-0.01,11.29-0.02c0.86,0.15,1.71,0.3,2.57,0.45c18.4,2.99,34.96,10.1,49.29,22.15
		c5.54,4.66,11.42,8.99,14.78,15.74C370.54,395.98,370.95,397.18,370.9,398.56z"/>
	<path class="saiposSt3" d="M222.11,467.18c9.23,7.43,19.74,11.15,31.62,10.66c4.06-0.17,6.05,0.22,7.03,5.53
		c2.56,13.77,3.97,14.27,18.16,15.23c13.35,0.9,26.74-0.71,40.08-2.01c9.63-0.94,14.16-9.05,14.48-17.33c0.19-5,1.73-6.28,6.43-6.11
		c11.42,0.41,21.7-4,31.97-8.27c0.12,21.45-7.83,39.58-24.65,52.63c-6.26,4.86-15.1,6.9-23.1,8.89c-9.77,2.42-19.71,4.24-30.01,3.82
		c-19.59-0.8-37.93-6.39-52.89-18.43c-12.36-9.94-20.61-23.86-20.32-41.03C220.95,469.48,220.59,468,222.11,467.18z"/>
	<path class="saiposSt7" d="M291.99,356.38c-1.58,0.76-3.21,0.85-4.89,0.42C288.62,355.4,290.27,355.55,291.99,356.38z"/>
	<path class="saiposSt7" d="M305.85,356.82c-0.86-0.15-1.71-0.3-2.57-0.45C304.29,355.64,305.16,355.69,305.85,356.82z"/>
	<path class="saiposSt1" d="M282.17,180.22c-4.81,0.51-7.7-2.17-9.59-6.03c-1.97-4.03,1.28-6.41,3.82-8.03
		c9.23-5.9,16.95-13.2,23.09-22.26c2.04-3.01,5.06-4.26,8.57-2.66c3.58,1.64,3.77,5.16,3.42,8.32c-1.09,9.68-6.23,17.18-13.47,23.38
		C293.43,176.88,288.36,179.81,282.17,180.22z"/>
	<path class="saiposSt1" d="M325.64,172.98c-0.05,5.98-3.34,10.57-7.63,10.64c-3.62,0.06-9.83-6.38-9.87-10.23
		c-0.04-4.28,4.98-8.39,10.12-8.27C323.93,165.24,325.7,167.12,325.64,172.98z"/>
	<path class="saiposSt1" d="M279.21,136.06c5.14,0.03,7.59,2.48,7.77,7.78c0.12,3.45-5.03,8.25-8.84,8.25c-2.95,0-7.26-5.11-7.25-8.59
		C270.92,138.92,274.15,136.03,279.21,136.06z"/>
	<path class="saiposSt3" d="M282.85,489.35c-3.07-0.52-7.18,1.23-10.56-2.52c-4.63-5.14-3.78-11.22,2.73-13.26
		c8.38-2.61,14.35-8.09,19.43-14.82c2.3-3.05,4.33-4.08,7.24-0.62c4.59,5.46,11.32,7.74,17.59,10.13c5.83,2.22,5.42,6.24,4.96,10.53
		c-0.49,4.54-2.89,8.02-7.58,9.25c-8.35,2.19-10.84,0.25-10.86-8.24c0-2.32,0.33-4.73-0.2-6.92c-0.73-3.01-2.59-4.99-6.26-4.47
		c-3.21,0.46-3.94,2.58-4.03,5.22c-0.1,2.7-0.01,5.41-0.02,8.12c-0.02,6.92-0.63,7.52-7.63,7.6
		C286.31,489.36,284.95,489.35,282.85,489.35z"/>
</g>
</svg>
